<svg width="101" height="22" viewBox="0 0 101 22" fill="none" xmlns="http://www.w3.org/2000/svg">
<path d="M0.00701904 16.0834C0.00701904 17.1451 0.864831 18.0077 1.98658 18.0077H9.90485V16.017H1.98658V14.0264H9.77288C10.8286 14.0264 11.8844 13.1638 11.8844 12.1021V12.1685V8.2536C11.8844 7.19194 10.8946 6.13027 9.77288 6.13027H1.98658C0.930816 6.13027 0.00701904 7.19193 0.00701904 8.2536V16.0834ZM9.9687 11.8774H1.92273V8.04598H9.9687V11.8774ZM36.4076 6.13027H28.5553C27.4996 6.13027 26.4438 7.17752 26.4438 8.22478V16.0137V15.9483C26.4438 16.9955 27.4996 17.9119 28.5553 17.9119H36.3416V19.8755H28.4234V21.8391H36.4076C37.4634 21.8391 38.3212 20.9227 38.3212 19.8755V8.22478C38.3212 7.17752 37.4634 6.13027 36.4076 6.13027ZM36.4055 16.092H28.3595V8.04598H36.4055L36.4055 16.092ZM20.9521 6.13027H15.0794C14.0237 6.13027 13.0339 7.18604 13.0339 8.2418V18.0077H15.0134V8.10983H20.9521C22.0079 8.10983 22.9317 9.09962 22.9317 10.2214V18.0077H24.9113V10.2214C24.9113 8.04385 23.1297 6.13027 20.9521 6.13027ZM49.3685 16.0281H41.4502V10.1554C41.4502 9.09962 42.506 8.04385 43.6277 8.04385H49.3685V17.9417H51.348V8.2418C51.348 7.18604 50.5562 6.13027 49.5005 6.13027H43.6277C41.4502 6.13027 39.4706 8.04385 39.4706 10.2214V16.0941C39.4706 17.1499 40.5924 18.0077 41.6481 18.0077H45.0794C46.861 18.0077 48.7086 17.2818 49.3685 16.0281ZM93.9725 0H91.961V18.0077H93.9725V8.00341H100.007V6.00256H93.9725V0ZM66.2905 16.0137C66.2905 17.061 66.8788 17.9119 67.9245 17.9119H75.4409V19.8755H68.2513V21.8391H75.7023C76.7481 21.8391 77.4017 20.9227 77.4017 19.81V19.8755V8.22478C77.4017 7.17752 76.7481 6.13027 75.7023 6.13027H67.9245C66.8788 6.13027 66.2905 7.17752 66.2905 8.22478V16.0137ZM75.8691 16.092H68.5894V8.04598H75.8691V16.092ZM62.3953 6.00256H54.741C53.6852 6.00256 52.4974 7.06968 52.4974 8.1368V16.0735V16.0068C52.4974 17.0739 53.6852 18.0077 54.741 18.0077H64.3748V0H62.3953V6.00256ZM62.8423 16.092H54.7963V8.04598H62.8423V16.092ZM78.9342 16.0835C78.9342 17.1451 80.056 18.0077 81.1117 18.0077H88.832V16.0171H80.9138V14.0265H88.964C90.0198 14.0265 90.8116 13.1639 90.8116 12.1022V12.1685V8.25365C90.8116 7.19199 90.0198 6.13032 88.964 6.13032H81.1117C80.056 6.13032 78.9342 7.19199 78.9342 8.25365V16.0835ZM88.8959 11.8774H80.8499V8.04603H88.8959V11.8774Z" fill="white"/>
</svg>
