<svg width="101" height="33" viewBox="0 0 101 33" fill="none" xmlns="http://www.w3.org/2000/svg">
<path d="M22.722 17.529L24.465 16.627V2.917H23.145L19.923 7.19H19.56L19.763 2.384H33.73L33.933 7.194H33.546L30.392 2.921H29.035V16.592L30.788 17.518V17.983H22.72V17.529H22.722ZM35.295 16.925V1.725L33.938 1.182V0.902L38.838 0H39.374V7.2L39.489 7.085C40.661 6.089 42.146 5.537 43.684 5.528C45.827 5.528 46.784 6.738 46.784 8.994V16.906L47.93 17.53V17.964H41.53V17.53L42.68 16.903V8.967C42.68 7.727 42.137 7.231 41.123 7.231C40.511 7.218 39.913 7.415 39.427 7.791V16.927L40.557 17.551V17.965H34.154V17.551L35.314 16.907L35.295 16.925ZM51.409 12.241C51.541 14.741 52.667 16.694 55.333 16.694C56.623 16.694 57.537 16.097 58.385 15.644V16.139C57.8151 16.8339 57.096 17.3917 56.2812 17.771C55.4664 18.1503 54.5767 18.3413 53.678 18.33C49.548 18.33 47.438 16.034 47.438 12.06C47.438 8.174 49.748 5.752 53.478 5.752C56.978 5.752 58.808 7.505 58.808 12.128V12.248L51.408 12.245L51.409 12.241ZM51.34 11.665L54.982 11.445C54.982 8.345 54.45 6.27 53.382 6.27C52.242 6.273 51.34 8.67 51.34 11.67V11.667V11.665ZM0 24.064C0 17.464 4.375 15.101 9.248 15.101C11.318 15.101 13.268 15.441 14.358 15.884L14.453 20.496H13.988L11.128 16.033C10.553 15.803 9.935 15.703 9.318 15.741C6.728 15.741 5.401 18.736 5.445 23.643C5.492 29.513 6.513 32.183 8.891 32.183C9.378 32.199 9.863 32.118 10.319 31.946V25.658L8.749 24.766V24.23H16.332V24.793L14.786 25.658V31.864C12.946 32.516 11.006 32.844 9.056 32.837C3.518 32.837 0.0010004 30.27 0.0010004 24.064H0ZM15.628 20.981V20.598L20.715 19.698L21.275 19.745V29.797C21.275 31.007 21.858 31.381 22.835 31.381C23.1521 31.3857 23.466 31.3179 23.7529 31.1827C24.0397 31.0476 24.2918 30.8486 24.49 30.601V21.583L23.093 20.976V20.583L28.18 19.683L28.692 19.73V31.26L30.065 31.837V32.203L25.075 32.803L24.563 32.756V31.24H24.423C23.399 32.24 22.023 32.815 20.601 32.847C18.156 32.847 17.037 31.402 17.037 29.211V21.571L15.627 20.967L15.628 20.981ZM47.597 19.665L48.017 19.712V23.442H48.132C48.678 20.729 49.879 19.712 51.347 19.712C51.5602 19.7021 51.7733 19.7343 51.974 19.807V23.585C51.6297 23.5121 51.2778 23.4813 50.926 23.493C49.972 23.468 49.024 23.657 48.152 24.046V31.402L49.312 32.046V32.551H42.7V32.049L43.9 31.401V21.375L42.503 20.958V20.618L47.607 19.678L47.597 19.665ZM60.402 19.99V16.066L59.005 15.578V15.268L64.153 14.322L64.641 14.392V31.244L66.061 31.759V32.193L60.974 32.871L60.577 32.824V31.442H60.462C60.0275 31.9027 59.5012 32.2672 58.9171 32.512C58.3331 32.7568 57.7042 32.8763 57.071 32.863C54.297 32.863 52.271 30.743 52.271 26.419C52.271 21.851 54.625 19.606 58.189 19.606C58.9457 19.5675 59.7014 19.6998 60.4 19.993L60.402 19.99ZM60.4 30.788V20.698C60.207 20.5342 59.9829 20.411 59.7411 20.3359C59.4993 20.2608 59.2449 20.2354 58.993 20.261C57.616 20.308 56.765 22.387 56.765 26.094C56.765 29.424 57.365 31.29 59.21 31.224C59.6464 31.2266 60.069 31.0714 60.4 30.787V30.788ZM71.64 19.68L72.08 19.727V31.427L73.243 32.071V32.576H66.63V32.074L67.817 31.426V21.562L66.397 21.002V20.602L71.64 19.669V19.68ZM72.105 16.509C72.065 17.721 71.059 18.677 69.845 18.652C69.4527 18.6677 69.0635 18.5772 68.7184 18.39C68.3733 18.2028 68.0852 17.9259 67.8844 17.5885C67.6836 17.2511 67.5777 16.8658 67.5778 16.4732C67.5779 16.0806 67.6841 15.6953 67.885 15.358C68.0856 15.0206 68.3737 14.7437 68.7186 14.5564C69.0636 14.3691 69.4528 14.2785 69.845 14.294C70.1379 14.2902 70.4286 14.3441 70.7006 14.4526C70.9726 14.5611 71.2206 14.7222 71.4304 14.9266C71.6402 15.131 71.8076 15.3747 71.9232 15.6438C72.0388 15.9129 72.1002 16.2021 72.104 16.495V16.509H72.105ZM86.954 31.407V21.452L85.557 20.964V20.482L90.644 19.536L91.156 19.583V21.075H91.296C92.5043 20.0422 94.0404 19.4726 95.63 19.468C97.845 19.468 98.82 20.516 98.82 22.858V31.394L100.007 32.072V32.564H93.384V32.062L94.571 31.414V23.072C94.571 21.79 94.011 21.278 92.964 21.278C92.3355 21.2605 91.7197 21.4565 91.217 21.834V31.414L92.384 32.058V32.568H85.76V32.066L86.947 31.418L86.954 31.407ZM79.751 25.158V23.486C79.751 20.97 79.201 20.146 77.645 20.146C77.469 20.15 77.293 20.166 77.119 20.193L74.349 23.947H73.949V20.487C75.446 19.973 77.016 19.701 78.599 19.68C81.989 19.68 83.954 20.62 83.954 23.458V31.598L85.168 31.918V32.238C84.3968 32.6341 83.5388 32.8311 82.672 32.811C81 32.811 80.2 32.261 79.832 31.346H79.712C79.002 32.306 77.996 32.856 76.416 32.856C74.402 32.856 73.026 31.598 73.026 29.424C73.026 27.318 74.332 26.174 76.986 25.67L79.74 25.16L79.751 25.158ZM79.74 30.79V25.754L78.892 25.822C77.562 25.937 77.084 26.785 77.084 28.662C77.084 30.697 77.762 31.226 78.684 31.226C78.8818 31.2442 79.0811 31.2143 79.2649 31.1387C79.4486 31.0631 79.6113 30.9442 79.739 30.792L79.74 30.79ZM36.801 25.162V23.49C36.801 20.974 36.251 20.15 34.695 20.15C34.5188 20.1543 34.3431 20.17 34.169 20.197L31.4 23.942H31.013V20.486C32.5091 19.9724 34.0773 19.7 35.659 19.679C39.049 19.679 41.014 20.619 41.014 23.457V31.597L42.228 31.917V32.237C41.4568 32.6331 40.5988 32.8301 39.732 32.81C38.06 32.81 37.26 32.26 36.892 31.345H36.777C36.067 32.305 35.061 32.855 33.481 32.855C31.467 32.855 30.091 31.597 30.091 29.423C30.091 27.317 31.397 26.173 34.051 25.669L36.801 25.159V25.162ZM36.801 30.789V25.753L35.953 25.821C34.623 25.936 34.145 26.784 34.145 28.661C34.145 30.696 34.823 31.225 35.745 31.225C35.9428 31.2432 36.1421 31.2133 36.3259 31.1377C36.5096 31.0621 36.6723 30.9432 36.8 30.791" fill="white"/>
</svg>
