<svg width="98" height="23" viewBox="0 0 98 23" fill="none" xmlns="http://www.w3.org/2000/svg">
<path d="M23.5221 0H36.3849C38.6428 -4.67582e-06 40.8147 0.847146 42.453 2.36688L42.6203 2.52624L47.39 7.18753C48.9875 8.74885 49.9122 10.8499 49.9736 13.0579L49.9768 13.2862V23H41.1585V14.4772C41.1585 13.7656 40.8853 13.0809 40.4007 12.5545L40.2935 12.4442L37.2478 9.46713C36.7339 8.965 36.0482 8.66649 35.3228 8.62901L35.1672 8.62493H32.3404V23H23.5219L23.5221 0ZM61.7343 0V14.3751H64.5611C65.2886 14.3751 65.9884 14.1112 66.5267 13.6376L66.6396 13.5329L69.6875 10.5558C70.2017 10.0541 70.5083 9.38427 70.5484 8.67496L70.5525 8.52301V0H79.3706V9.71359C79.3706 11.297 78.919 12.833 78.0949 14.1662L77.9617 14.3751H82.1975C82.925 14.3751 83.6248 14.1112 84.163 13.6376L84.276 13.5329L87.3239 10.5558C87.8381 10.0541 88.1447 9.38427 88.1848 8.67496L88.1889 8.52301V0H97.007V9.71359C97.0057 11.9225 96.1381 14.0469 94.5832 15.6488L94.4202 15.8125L89.6525 20.4738C88.0552 22.0355 85.9064 22.9386 83.6487 22.997L83.4151 23H74.9617V17.5942L72.0161 20.4738C70.4188 22.0355 68.27 22.9386 66.0123 22.997L65.7787 23H52.9162V0H61.7343ZM20.5828 0V8.62493H14.704V23H5.88575V8.62493H0.00701904V0H20.5828Z" fill="white"/>
</svg>
